<svg xmlns="http://www.w3.org/2000/svg" version="1.1" xmlns:xlink="http://www.w3.org/1999/xlink" xmlns:svgjs="http://svgjs.dev/svgjs" width="1000" height="1000" viewBox="0 0 1000 1000"><rect width="1000" height="1000" fill="#000000"></rect><g transform="matrix(0.4166666666666667,0,0,0.4166666666666667,291.7141449880022,150.28340080971657)"><svg viewBox="0 0 147 247" data-background-color="#ffffff" preserveAspectRatio="xMidYMid meet" height="1680" width="1000" xmlns="http://www.w3.org/2000/svg" xmlns:xlink="http://www.w3.org/1999/xlink"><g id="tight-bounds" transform="matrix(1,0,0,1,-0.0167503517672003,-0.09999999999999432)"><svg viewBox="0 0 147.03350070353443 247.2" height="247.2" width="147.03350070353443"><g><svg viewBox="0 0 220.54466378227494 370.7906064" height="247.2" width="147.03350070353443"><g><svg viewBox="0 0 220.54466378227494 370.7906064" height="370.7906064" width="220.54466378227494"><g id="textblocktransform"><svg viewBox="0 0 220.54466378227494 370.7906064" height="370.7906064" width="220.54466378227494" id="textblock"><g><rect width="220.54466378227494" height="247.2" fill="none" stroke-width="9.018103199999999" stroke="#ffffff" data-fill-palette-color="none" data-stroke-palette-color="tertiary"></rect><rect width="220.54466378227494" height="123.5906064" y="247.2" fill="#ffffff" data-fill-palette-color="tertiary"></rect></g><g><svg viewBox="0 0 220.54466378227494 247.2" height="247.2" width="220.54466378227494"><g transform="matrix(1,0,0,1,23.607600000000012,23.607599999999998)"><svg width="173.32946378227493" viewBox="4.349999904632568 -35.83000183105469 31.05000114440918 35.83000183105469" height="199.9848" data-palette-color="#233565"><path d="M35.4-17.9L35.4-17.9Q35.4-13.88 34.13-10.58 32.85-7.28 30.53-4.93 28.2-2.58 24.95-1.29 21.7 0 17.75 0L17.75 0 4.35 0 4.35-35.83 17.75-35.83Q21.7-35.83 24.95-34.54 28.2-33.25 30.53-30.89 32.85-28.53 34.13-25.23 35.4-21.93 35.4-17.9ZM30.43-17.9L30.43-17.9Q30.43-21.2 29.53-23.8 28.63-26.4 26.98-28.2 25.33-30 22.98-30.95 20.63-31.9 17.75-31.9L17.75-31.9 9.22-31.9 9.22-3.93 17.75-3.93Q20.63-3.93 22.98-4.88 25.33-5.83 26.98-7.61 28.63-9.4 29.53-12 30.43-14.6 30.43-17.9Z" opacity="1" transform="matrix(1,0,0,1,0,0)" fill="#ffffff" class="wordmark-text-0" data-fill-palette-color="primary" id="text-0"></path></svg></g></svg></g></svg></g></svg></g><g></g></svg></g><defs></defs></svg><rect width="147.03350070353443" height="247.2" fill="none" stroke="none" visibility="hidden"></rect></g></svg></g></svg>